<?xml version="1.0" encoding="UTF-8" standalone="no"?>
<svg
   xmlns:dc="http://purl.org/dc/elements/1.1/"
   xmlns:cc="http://creativecommons.org/ns#"
   xmlns:rdf="http://www.w3.org/1999/02/22-rdf-syntax-ns#"
   xmlns:svg="http://www.w3.org/2000/svg"
   xmlns="http://www.w3.org/2000/svg"
   xmlns:sodipodi="http://sodipodi.sourceforge.net/DTD/sodipodi-0.dtd"
   xmlns:inkscape="http://www.inkscape.org/namespaces/inkscape"
   version="1.1"
   viewBox="0 0 609.84741 463.61502"
   stroke-miterlimit="10"
   id="svg5169"
   sodipodi:docname="chase the mouse.svg"
   width="609.84741"
   height="463.61502"
   style="fill:none;stroke:none;stroke-linecap:square;stroke-miterlimit:10"
   inkscape:version="0.92.5 (2060ec1f9f, 2020-04-08)">
  <metadata
     id="metadata5175">
    <rdf:RDF>
      <cc:Work
         rdf:about="">
        <dc:format>image/svg+xml</dc:format>
        <dc:type
           rdf:resource="http://purl.org/dc/dcmitype/StillImage" />
        <dc:title></dc:title>
      </cc:Work>
    </rdf:RDF>
  </metadata>
  <defs
     id="defs5173" />
  <sodipodi:namedview
     pagecolor="#ffffff"
     bordercolor="#666666"
     borderopacity="1"
     objecttolerance="10"
     gridtolerance="10"
     guidetolerance="10"
     inkscape:pageopacity="0"
     inkscape:pageshadow="2"
     inkscape:window-width="2488"
     inkscape:window-height="1536"
     id="namedview5171"
     showgrid="false"
     fit-margin-top="0.2"
     fit-margin-right="0.2"
     fit-margin-bottom="0.2"
     fit-margin-left="0.2"
     inkscape:zoom="1.8541911"
     inkscape:cx="397.15811"
     inkscape:cy="204.86447"
     inkscape:window-x="72"
     inkscape:window-y="27"
     inkscape:window-maximized="1"
     inkscape:current-layer="g5167" />
  <clipPath
     id="p.0">
    <path
       d="M 0,0 H 960 V 720 H 0 Z"
       id="path5078"
       inkscape:connector-curvature="0"
       style="clip-rule:nonzero" />
  </clipPath>
  <g
     clip-path="url(#p.0)"
     id="g5167"
     transform="translate(-27.210984,-17.557128)">
    <path
       d="M 0,0 H 960 V 720 H 0 Z"
       id="path5081"
       inkscape:connector-curvature="0"
       style="fill:#000000;fill-opacity:0;fill-rule:evenodd" />
    <path
       d="m 156.63755,301.47733 v 0 c 0,-6.76657 5.48538,-12.25195 12.25198,-12.25195 v 0 c 3.24942,0 6.36576,1.29083 8.66343,3.58853 2.2977,2.29767 3.58853,5.414 3.58853,8.66342 v 0 c 0,6.7666 -5.48538,12.25198 -12.25196,12.25198 v 0 c -6.7666,0 -12.25198,-5.48538 -12.25198,-12.25198 z"
       id="path5083"
       inkscape:connector-curvature="0"
       style="fill:#cfe2f3;fill-rule:evenodd" />
    <path
       d="m 156.63755,301.47733 v 0 c 0,-6.76657 5.48538,-12.25195 12.25198,-12.25195 v 0 c 3.24942,0 6.36576,1.29083 8.66343,3.58853 2.2977,2.29767 3.58853,5.414 3.58853,8.66342 v 0 c 0,6.7666 -5.48538,12.25198 -12.25196,12.25198 v 0 c -6.7666,0 -12.25198,-5.48538 -12.25198,-12.25198 z"
       id="path5085"
       inkscape:connector-curvature="0"
       style="fill-rule:evenodd;stroke:#000000;stroke-width:1;stroke-linecap:butt;stroke-linejoin:round" />
    <path
       d="M 169.40981,301.47793 544.81136,98.265333"
       id="path5087"
       inkscape:connector-curvature="0"
       style="fill:#000000;fill-opacity:0;fill-rule:evenodd" />
    <path
       d="M 169.40981,301.47793 544.81136,98.265333"
       id="path5089"
       inkscape:connector-curvature="0"
       style="fill-rule:evenodd;stroke:#000000;stroke-width:1;stroke-linecap:butt;stroke-linejoin:round" />
    <path
       d="m 85.314734,301.47733 v 0 c 0,-46.15707 37.417706,-83.5748 83.574806,-83.5748 v 0 c 22.16541,0 43.42298,8.80518 59.09629,24.47852 15.67334,15.67331 24.47851,36.93087 24.47851,59.09628 v 0 c 0,46.1571 -37.41772,83.57483 -83.5748,83.57483 v 0 c -46.1571,0 -83.574806,-37.41773 -83.574806,-83.57483 z"
       id="path5091"
       inkscape:connector-curvature="0"
       style="fill:#000000;fill-opacity:0;fill-rule:evenodd" />
    <path
       d="m 85.314734,301.47733 v 0 c 0,-46.15707 37.417706,-83.5748 83.574806,-83.5748 v 0 c 22.16541,0 43.42298,8.80518 59.09629,24.47852 15.67334,15.67331 24.47851,36.93087 24.47851,59.09628 v 0 c 0,46.1571 -37.41772,83.57483 -83.5748,83.57483 v 0 c -46.1571,0 -83.574806,-37.41773 -83.574806,-83.57483 z"
       id="path5093"
       inkscape:connector-curvature="0"
       style="fill-rule:evenodd;stroke:#000000;stroke-width:1;stroke-linecap:butt;stroke-linejoin:round" />
    <path
       d="m 169.49321,301.51673 72.85037,-0.59845"
       id="path5095"
       inkscape:connector-curvature="0"
       style="fill:#000000;fill-opacity:0;fill-rule:evenodd" />
    <path
       d="m 169.49321,301.51673 72.85037,-0.59845"
       id="path5097"
       inkscape:connector-curvature="0"
       style="fill-rule:evenodd;stroke:#000000;stroke-width:1;stroke-linecap:butt;stroke-linejoin:round" />
    <path
       d="m 255.20975,240.9165 h 39.77954 v 67.87402 h -39.77954 z"
       id="path5099"
       inkscape:connector-curvature="0"
       style="fill:#000000;fill-opacity:0;fill-rule:evenodd" />
    <path
       d="m 278.44411,280.3009 q -1.42188,0.0781 -2.14063,0.4375 -0.71875,0.34375 -1.25,1.1875 -0.51562,0.82812 -0.71875,2.07812 -0.15625,0.9375 -0.15625,3.23438 0,3.79687 -0.34375,5.29687 -0.34375,1.5 -1.26562,2.40625 -0.92188,0.92188 -2.6875,1.4375 -1.20313,0.35938 -3.75,0.35938 h -1.04688 v -4.6875 q 2.09375,0 2.73438,-0.26563 0.65625,-0.26562 0.95312,-0.76562 0.29688,-0.5 0.3125,-1.6875 0.0156,-1.1875 0.17188,-4.54688 0.0937,-2.03125 0.51562,-3.25 0.4375,-1.23437 1.14063,-2.07812 0.71875,-0.84375 1.82812,-1.5 -1.4375,-0.9375 -2.10937,-1.82813 -0.90625,-1.29687 -1.25,-3.28125 -0.20313,-1.375 -0.3125,-6.01562 -0.0156,-1.46875 -0.26563,-1.95313 -0.23437,-0.48437 -0.875,-0.75 -0.625,-0.26562 -2.84375,-0.26562 v -4.67188 h 1.04688 q 2.625,0 4.03125,0.42188 1.40625,0.40625 2.35937,1.39062 0.96875,0.98438 1.3125,2.42188 0.34375,1.4375 0.34375,4.51562 0,3.57813 0.28125,4.67188 0.4375,1.5625 1.3125,2.23437 0.875,0.67188 2.67188,0.76563 z"
       id="path5101"
       inkscape:connector-curvature="0"
       style="fill:#000000;fill-rule:nonzero" />
    <path
       d="M 242.95253,262.32773 V 300.9104"
       id="path5103"
       inkscape:connector-curvature="0"
       style="fill:#000000;fill-opacity:0;fill-rule:evenodd" />
    <path
       d="M 242.95253,262.32773 V 300.9104"
       id="path5105"
       inkscape:connector-curvature="0"
       style="fill-rule:evenodd;stroke:#000000;stroke-width:1;stroke-linecap:butt;stroke-linejoin:round" />
    <path
       d="M 268.10738,301.47733 V 344.249 H 161.46172 v -42.77167 z"
       id="path5107"
       inkscape:connector-curvature="0"
       style="fill:#000000;fill-opacity:0;fill-rule:evenodd" />
    <path
       d="m 211.50301,332.49295 h -5.73438 q -0.0625,-2.71875 -1.46875,-4.42188 -1.40625,-1.70312 -3.8125,-2.26562 -2.40625,-0.5625 -8.28125,-0.59375 -5.875,-0.0312 -7.73437,-0.21875 -3,-0.3125 -4.76563,-1.17188 -1.78125,-0.85937 -2.84375,-2.125 -1.07812,-1.26562 -1.64062,-3.23437 -0.39063,-1.34375 -0.39063,-4.35938 v -1.96875 h 5.51563 v 1.09375 q 0,3.65625 1.32812,4.84375 1.3125,1.20313 5.92188,1.20313 8.79687,0 11.14062,0.3125 3.90625,0.5625 6.23438,2.25 2.34375,1.6875 3.65625,4.78125 1.92187,-4.04688 5.10937,-5.70313 3.1875,-1.64062 10.73438,-1.64062 6.85937,0 8.20312,-0.1875 2.34375,-0.23438 3.28125,-1.39063 0.9375,-1.14062 0.9375,-4.46875 v -1.09375 h 5.51563 v 1.96875 q 0,3.4375 -0.5625,4.98438 -0.78125,2.25 -2.60938,3.71875 -1.82812,1.48437 -4.60937,1.92187 -2.76563,0.45313 -9.09375,0.48438 -6.32813,0.0312 -8.73438,0.59375 -2.40625,0.5625 -3.8125,2.26562 -1.40625,1.70313 -1.48437,4.42188 z"
       id="path5109"
       inkscape:connector-curvature="0"
       style="fill:#000000;fill-rule:nonzero" />
    <path
       d="M 568.06539,128.25162 547.24648,97.637453"
       id="path5111"
       inkscape:connector-curvature="0"
       style="fill:#000000;fill-opacity:0;fill-rule:evenodd" />
    <path
       d="m 568.06539,128.25162 -7.32294,-10.76831"
       id="path5113"
       inkscape:connector-curvature="0"
       style="fill-rule:evenodd;stroke:#000000;stroke-width:4;stroke-linecap:butt;stroke-linejoin:round" />
    <path
       d="m 566.20585,113.768 -15.67102,-11.29511 4.74432,18.7257 z"
       id="path5115"
       inkscape:connector-curvature="0"
       style="fill:#000000;fill-rule:evenodd;stroke:#000000;stroke-width:4;stroke-linecap:butt" />
    <path
       d="m 488.47481,39.493093 c 0,14.69291 14.69293,22.03936 29.38586,29.38583 14.69287,7.34645 29.38581,14.6929 29.38581,29.38582"
       id="path5117"
       inkscape:connector-curvature="0"
       style="fill:#000000;fill-opacity:0;fill-rule:evenodd" />
    <path
       d="m 488.47481,39.493093 c 0,14.69291 14.69293,22.03936 29.38586,29.38583 7.34644,3.67322 14.69287,7.34645 20.20276,11.93799 2.75489,2.29576 5.05066,4.8211 6.65772,7.69081 0.40173,0.71744 0.76044,1.45637 1.07251,2.21866 0.15606,0.38113 0.30047,0.76809 0.43274,1.1611 0.033,0.0983 0.0654,0.19688 0.0969,0.2959 l 0.0452,0.14593"
       id="path5119"
       inkscape:connector-curvature="0"
       style="fill-rule:evenodd;stroke:#000000;stroke-width:1;stroke-linecap:butt;stroke-linejoin:round" />
    <path
       d="m 544.73455,92.571013 2.29797,4.24756 0.96991,-4.73094 z"
       id="path5121"
       inkscape:connector-curvature="0"
       style="fill:#000000;fill-rule:evenodd;stroke:#000000;stroke-width:1;stroke-linecap:butt" />
    <path
       d="m 422.36458,4.1965034 h 145.7008 V 46.212253 h -145.7008 z"
       id="path5123"
       inkscape:connector-curvature="0"
       style="fill:#000000;fill-opacity:0;fill-rule:evenodd" />
    <path
       d="m 432.59895,31.116503 v -9.671875 h 1.46875 v 1.359375 q 0.45313,-0.71875 1.20313,-1.140625 0.76562,-0.4375 1.71875,-0.4375 1.07812,0 1.76562,0.453125 0.6875,0.4375 0.96875,1.234375 1.15625,-1.6875 2.98438,-1.6875 1.45312,0 2.21875,0.796875 0.78125,0.796875 0.78125,2.453125 v 6.640625 h -1.64063 v -6.09375 q 0,-0.984375 -0.15625,-1.40625 -0.15625,-0.4375 -0.57812,-0.703125 -0.42188,-0.265625 -0.98438,-0.265625 -1.01562,0 -1.6875,0.6875 -0.67187,0.671875 -0.67187,2.15625 v 5.625 h -1.64063 v -6.28125 q 0,-1.09375 -0.40625,-1.640625 -0.40625,-0.546875 -1.3125,-0.546875 -0.6875,0 -1.28125,0.359375 -0.59375,0.359375 -0.85937,1.0625 -0.25,0.703125 -0.25,2.03125 v 5.015625 z m 14.93146,-4.84375 q 0,-2.6875 1.48437,-3.96875 1.25,-1.078125 3.04688,-1.078125 2,0 3.26562,1.3125 1.26563,1.296875 1.26563,3.609375 0,1.859375 -0.5625,2.9375 -0.5625,1.0625 -1.64063,1.65625 -1.0625,0.59375 -2.32812,0.59375 -2.03125,0 -3.28125,-1.296875 -1.25,-1.3125 -1.25,-3.765625 z m 1.6875,0 q 0,1.859375 0.79687,2.796875 0.8125,0.921875 2.04688,0.921875 1.21875,0 2.03125,-0.921875 0.8125,-0.9375 0.8125,-2.84375 0,-1.796875 -0.8125,-2.71875 -0.8125,-0.921875 -2.03125,-0.921875 -1.23438,0 -2.04688,0.921875 -0.79687,0.90625 -0.79687,2.765625 z m 15.62567,4.84375 v -1.421875 q -1.125,1.640625 -3.0625,1.640625 -0.85938,0 -1.60938,-0.328125 -0.73437,-0.328125 -1.09375,-0.828125 -0.35937,-0.5 -0.5,-1.21875 -0.10937,-0.46875 -0.10937,-1.53125 v -5.984375 h 1.64062 v 5.359375 q 0,1.28125 0.10938,1.734375 0.15625,0.640625 0.65625,1.015625 0.5,0.375 1.23437,0.375 0.73438,0 1.375,-0.375 0.65625,-0.390625 0.92188,-1.03125 0.26562,-0.65625 0.26562,-1.890625 v -5.1875 h 1.64063 v 9.671875 z m 3.39136,-2.890625 1.625,-0.25 q 0.125,0.96875 0.75,1.5 0.625,0.515625 1.75,0.515625 1.125,0 1.67187,-0.453125 0.54688,-0.46875 0.54688,-1.09375 0,-0.546875 -0.48438,-0.875 -0.32812,-0.21875 -1.67187,-0.546875 -1.8125,-0.46875 -2.51563,-0.796875 -0.6875,-0.328125 -1.04687,-0.90625 -0.35938,-0.59375 -0.35938,-1.3125 0,-0.640625 0.29688,-1.1875 0.29687,-0.5625 0.8125,-0.921875 0.375,-0.28125 1.03125,-0.46875 0.67187,-0.203125 1.42187,-0.203125 1.14063,0 2,0.328125 0.85938,0.328125 1.26563,0.890625 0.42187,0.5625 0.57812,1.5 l -1.60937,0.21875 q -0.10938,-0.75 -0.64063,-1.171875 -0.51562,-0.421875 -1.46875,-0.421875 -1.14062,0 -1.625,0.375 -0.46875,0.375 -0.46875,0.875 0,0.3125 0.1875,0.578125 0.20313,0.265625 0.64063,0.4375 0.23437,0.09375 1.4375,0.421875 1.75,0.453125 2.4375,0.75 0.6875,0.296875 1.07812,0.859375 0.39063,0.5625 0.39063,1.40625 0,0.828125 -0.48438,1.546875 -0.46875,0.71875 -1.375,1.125 -0.90625,0.390625 -2.04687,0.390625 -1.875,0 -2.875,-0.78125 -0.98438,-0.78125 -1.25,-2.328125 z m 16.60937,-0.21875 1.6875,0.203125 q -0.40625,1.484375 -1.48437,2.3125 -1.07813,0.8125 -2.76563,0.8125 -2.125,0 -3.375,-1.296875 -1.23437,-1.3125 -1.23437,-3.671875 0,-2.453125 1.25,-3.796875 1.26562,-1.34375 3.26562,-1.34375 1.9375,0 3.15625,1.328125 1.23438,1.3125 1.23438,3.703125 0,0.15625 0,0.4375 h -7.21875 q 0.0937,1.59375 0.90625,2.453125 0.8125,0.84375 2.01562,0.84375 0.90625,0 1.54688,-0.46875 0.64062,-0.484375 1.01562,-1.515625 z m -5.39062,-2.65625 h 5.40625 q -0.10938,-1.21875 -0.625,-1.828125 -0.78125,-0.953125 -2.03125,-0.953125 -1.125,0 -1.90625,0.765625 -0.76563,0.75 -0.84375,2.015625 z m 14.32464,9.468755 V 21.444628 h 1.48438 v 1.25 q 0.53125,-0.734375 1.1875,-1.09375 0.67187,-0.375 1.625,-0.375 1.23437,0 2.17187,0.640625 0.95313,0.625 1.4375,1.796875 0.48438,1.15625 0.48438,2.546875 0,1.484375 -0.53125,2.671875 -0.53125,1.1875 -1.54688,1.828125 -1.01562,0.625 -2.14062,0.625 -0.8125,0 -1.46875,-0.34375 -0.65625,-0.34375 -1.0625,-0.875 v 4.70313 z m 1.48438,-8.48438 q 0,1.859375 0.75,2.765625 0.76562,0.890625 1.82812,0.890625 1.09375,0 1.875,-0.921875 0.78125,-0.9375 0.78125,-2.875 0,-1.84375 -0.76562,-2.765625 -0.75,-0.921875 -1.8125,-0.921875 -1.04688,0 -1.85938,0.984375 -0.79687,0.96875 -0.79687,2.84375 z m 8.28198,-0.0625 q 0,-2.6875 1.48437,-3.96875 1.25,-1.078125 3.04688,-1.078125 2,0 3.26562,1.3125 1.26563,1.296875 1.26563,3.609375 0,1.859375 -0.5625,2.9375 -0.5625,1.0625 -1.64063,1.65625 -1.0625,0.59375 -2.32812,0.59375 -2.03125,0 -3.28125,-1.296875 -1.25,-1.3125 -1.25,-3.765625 z m 1.6875,0 q 0,1.859375 0.79687,2.796875 0.8125,0.921875 2.04688,0.921875 1.21875,0 2.03125,-0.921875 0.8125,-0.9375 0.8125,-2.84375 0,-1.796875 -0.8125,-2.71875 -0.8125,-0.921875 -2.03125,-0.921875 -1.23438,0 -2.04688,0.921875 -0.79687,0.90625 -0.79687,2.765625 z m 8.64136,1.953125 1.625,-0.25 q 0.125,0.96875 0.75,1.5 0.625,0.515625 1.75,0.515625 1.125,0 1.67187,-0.453125 0.54688,-0.46875 0.54688,-1.09375 0,-0.546875 -0.48438,-0.875 -0.32812,-0.21875 -1.67187,-0.546875 -1.8125,-0.46875 -2.51563,-0.796875 -0.6875,-0.328125 -1.04687,-0.90625 -0.35938,-0.59375 -0.35938,-1.3125 0,-0.640625 0.29688,-1.1875 0.29687,-0.5625 0.8125,-0.921875 0.375,-0.28125 1.03125,-0.46875 0.67187,-0.203125 1.42187,-0.203125 1.14063,0 2,0.328125 0.85938,0.328125 1.26563,0.890625 0.42187,0.5625 0.57812,1.5 l -1.60937,0.21875 q -0.10938,-0.75 -0.64063,-1.171875 -0.51562,-0.421875 -1.46875,-0.421875 -1.14062,0 -1.625,0.375 -0.46875,0.375 -0.46875,0.875 0,0.3125 0.1875,0.578125 0.20313,0.265625 0.64063,0.4375 0.23437,0.09375 1.4375,0.421875 1.75,0.453125 2.4375,0.75 0.6875,0.296875 1.07812,0.859375 0.39063,0.5625 0.39063,1.40625 0,0.828125 -0.48438,1.546875 -0.46875,0.71875 -1.375,1.125 -0.90625,0.390625 -2.04687,0.390625 -1.875,0 -2.875,-0.78125 -0.98438,-0.78125 -1.25,-2.328125 z m 9.98437,-8.578125 v -1.890625 h 1.64063 v 1.890625 z m 0,11.46875 v -9.671875 h 1.64063 v 9.671875 z m 7.7229,-1.46875 0.23438,1.453125 q -0.6875,0.140625 -1.23438,0.140625 -0.89062,0 -1.39062,-0.28125 -0.48438,-0.28125 -0.6875,-0.734375 -0.20313,-0.46875 -0.20313,-1.9375 v -5.578125 h -1.20312 v -1.265625 h 1.20312 v -2.390625 l 1.625,-0.984375 v 3.375 h 1.65625 v 1.265625 h -1.65625 v 5.671875 q 0,0.6875 0.0781,0.890625 0.0937,0.203125 0.28125,0.328125 0.20312,0.109375 0.57812,0.109375 0.26563,0 0.71875,-0.0625 z m 1.60523,-10 v -1.890625 h 1.64062 v 1.890625 z m 0,11.46875 v -9.671875 h 1.64062 v 9.671875 z m 3.5354,-4.84375 q 0,-2.6875 1.48437,-3.96875 1.25,-1.078125 3.04688,-1.078125 2,0 3.26562,1.3125 1.26563,1.296875 1.26563,3.609375 0,1.859375 -0.5625,2.9375 -0.5625,1.0625 -1.64063,1.65625 -1.0625,0.59375 -2.32812,0.59375 -2.03125,0 -3.28125,-1.296875 -1.25,-1.3125 -1.25,-3.765625 z m 1.6875,0 q 0,1.859375 0.79687,2.796875 0.8125,0.921875 2.04688,0.921875 1.21875,0 2.03125,-0.921875 0.8125,-0.9375 0.8125,-2.84375 0,-1.796875 -0.8125,-2.71875 -0.8125,-0.921875 -2.03125,-0.921875 -1.23438,0 -2.04688,0.921875 -0.79687,0.90625 -0.79687,2.765625 z m 9.2976,4.84375 v -9.671875 h 1.46875 v 1.375 q 1.0625,-1.59375 3.07813,-1.59375 0.875,0 1.60937,0.3125 0.73438,0.3125 1.09375,0.828125 0.375,0.5 0.51563,1.203125 0.0937,0.453125 0.0937,1.59375 v 5.953125 h -1.64063 v -5.890625 q 0,-1 -0.20312,-1.484375 -0.1875,-0.5 -0.67188,-0.796875 -0.48437,-0.296875 -1.14062,-0.296875 -1.04688,0 -1.8125,0.671875 -0.75,0.65625 -0.75,2.515625 v 5.28125 z"
       id="path5125"
       inkscape:connector-curvature="0"
       style="fill:#000000;fill-rule:nonzero" />
    <path
       d="m 85.616574,207.23063 c 0,23.5748 20.992126,35.36221 41.984246,47.1496 20.99213,11.78741 41.98426,23.5748 41.98426,47.14962"
       id="path5127"
       inkscape:connector-curvature="0"
       style="fill:#000000;fill-opacity:0;fill-rule:evenodd" />
    <path
       d="m 85.616574,207.23063 c 0,23.5748 20.992126,35.36221 41.984246,47.1496 10.49607,5.8937 20.99213,11.78741 28.86417,19.15454 3.93603,3.68356 7.21603,7.73547 9.51205,12.33993 1.14801,2.30222 2.05002,4.74259 2.66504,7.34412 0.15375,0.65033 0.28955,1.31082 0.40677,1.98172 l 0.0583,0.34836"
       id="path5129"
       inkscape:connector-curvature="0"
       style="fill-rule:evenodd;stroke:#000000;stroke-width:1;stroke-linecap:butt;stroke-linejoin:round" />
    <path
       d="m 167.46062,295.68048 2.008,4.39209 1.28497,-4.65524 z"
       id="path5131"
       inkscape:connector-curvature="0"
       style="fill:#000000;fill-rule:evenodd;stroke:#000000;stroke-width:1;stroke-linecap:butt" />
    <path
       d="M 27.410984,176.72931 H 173.11177 v 42.01575 H 27.410984 Z"
       id="path5133"
       inkscape:connector-curvature="0"
       style="fill:#000000;fill-opacity:0;fill-rule:evenodd" />
    <path
       d="m 39.145364,203.64929 h -1.51563 v -13.35936 h 1.64063 v 4.76561 q 1.04687,-1.29688 2.65625,-1.29688 0.89062,0 1.6875,0.35938 0.79687,0.35937 1.3125,1.01562 0.51562,0.64063 0.79687,1.5625 0.29688,0.92188 0.29688,1.96875 0,2.48438 -1.23438,3.84375 -1.21875,1.35938 -2.95312,1.35938 -1.70313,0 -2.6875,-1.4375 z m -0.0156,-4.90625 q 0,1.73437 0.48438,2.51562 0.76562,1.26563 2.09375,1.26563 1.07812,0 1.85937,-0.9375 0.78125,-0.9375 0.78125,-2.78125 0,-1.89063 -0.75,-2.79688 -0.75,-0.90625 -1.82812,-0.90625 -1.0625,0 -1.85938,0.9375 -0.78125,0.9375 -0.78125,2.70313 z m 15.20385,3.71875 q -0.92188,0.76562 -1.76563,1.09375 -0.82812,0.3125 -1.79687,0.3125 -1.59375,0 -2.45313,-0.78125 -0.85937,-0.78125 -0.85937,-1.98438 0,-0.71875 0.32812,-1.29687 0.32813,-0.59375 0.84375,-0.9375 0.53125,-0.35938 1.1875,-0.54688 0.46875,-0.125 1.45313,-0.25 1.98437,-0.23437 2.92187,-0.5625 0.0156,-0.34375 0.0156,-0.42187 0,-1 -0.46875,-1.42188 -0.625,-0.54687 -1.875,-0.54687 -1.15625,0 -1.70313,0.40625 -0.54687,0.40625 -0.8125,1.42187 l -1.60937,-0.21875 q 0.21875,-1.01562 0.71875,-1.64062 0.5,-0.64063 1.45312,-0.98438 0.95313,-0.34375 2.1875,-0.34375 1.25,0 2.01563,0.29688 0.78125,0.28125 1.14062,0.73437 0.375,0.4375 0.51563,1.10938 0.0781,0.42187 0.0781,1.51562 v 2.1875 q 0,2.28125 0.10938,2.89063 0.10937,0.59375 0.40625,1.15625 h -1.70313 q -0.26562,-0.51563 -0.32812,-1.1875 z m -0.14063,-3.67188 q -0.89062,0.375 -2.67187,0.625 -1.01563,0.14063 -1.4375,0.32813 -0.42188,0.1875 -0.65625,0.53125 -0.21875,0.34375 -0.21875,0.78125 0,0.65625 0.5,1.09375 0.5,0.4375 1.45312,0.4375 0.9375,0 1.67188,-0.40625 0.75,-0.42188 1.09375,-1.14063 0.26562,-0.5625 0.26562,-1.64062 z m 4.15697,4.85938 v -13.35936 h 1.64062 v 13.35936 z m 4.14482,0 v -13.35936 h 1.64063 v 13.35936 z m 9.375,3.70312 v -13.375 h 1.48438 v 1.25 q 0.53125,-0.73437 1.1875,-1.09375 0.67187,-0.375 1.625,-0.375 1.23437,0 2.17187,0.64063 0.95313,0.625 1.4375,1.79687 0.48438,1.15625 0.48438,2.54688 0,1.48437 -0.53125,2.67187 -0.53125,1.1875 -1.54688,1.82813 -1.01562,0.625 -2.14062,0.625 -0.8125,0 -1.46875,-0.34375 -0.65625,-0.34375 -1.0625,-0.875 v 4.70312 z m 1.48438,-8.48437 q 0,1.85937 0.75,2.76562 0.76562,0.89063 1.82812,0.89063 1.09375,0 1.875,-0.92188 0.78125,-0.9375 0.78125,-2.875 0,-1.84375 -0.76562,-2.76562 -0.75,-0.92188 -1.8125,-0.92188 -1.04688,0 -1.85938,0.98438 -0.79687,0.96875 -0.79687,2.84375 z m 8.28196,-0.0625 q 0,-2.6875 1.48438,-3.96875 1.25,-1.07813 3.04687,-1.07813 2,0 3.26563,1.3125 1.26562,1.29688 1.26562,3.60938 0,1.85937 -0.5625,2.9375 -0.5625,1.0625 -1.64062,1.65625 -1.0625,0.59375 -2.32813,0.59375 -2.03125,0 -3.28125,-1.29688 -1.25,-1.3125 -1.25,-3.76562 z m 1.6875,0 q 0,1.85937 0.79688,2.79687 0.8125,0.92188 2.04687,0.92188 1.21875,0 2.03125,-0.92188 0.8125,-0.9375 0.8125,-2.84375 0,-1.79687 -0.8125,-2.71875 -0.8125,-0.92187 -2.03125,-0.92187 -1.23437,0 -2.04687,0.92187 -0.79688,0.90625 -0.79688,2.76563 z m 8.64134,1.95312 1.625,-0.25 q 0.125,0.96875 0.75,1.5 0.625,0.51563 1.75,0.51563 1.125,0 1.67188,-0.45313 0.54687,-0.46875 0.54687,-1.09375 0,-0.54687 -0.48437,-0.875 -0.32813,-0.21875 -1.67188,-0.54687 -1.8125,-0.46875 -2.51562,-0.79688 -0.6875,-0.32812 -1.04688,-0.90625 -0.35937,-0.59375 -0.35937,-1.3125 0,-0.64062 0.29687,-1.1875 0.29688,-0.5625 0.8125,-0.92187 0.375,-0.28125 1.03125,-0.46875 0.67188,-0.20313 1.42188,-0.20313 1.14062,0 2,0.32813 0.85937,0.32812 1.26562,0.89062 0.42188,0.5625 0.57813,1.5 l -1.60938,0.21875 q -0.10937,-0.75 -0.64062,-1.17187 -0.51563,-0.42188 -1.46875,-0.42188 -1.14063,0 -1.625,0.375 -0.46875,0.375 -0.46875,0.875 0,0.3125 0.1875,0.57813 0.20312,0.26562 0.64062,0.4375 0.23438,0.0937 1.4375,0.42187 1.75,0.45313 2.4375,0.75 0.6875,0.29688 1.07813,0.85938 0.39062,0.5625 0.39062,1.40625 0,0.82812 -0.48437,1.54687 -0.46875,0.71875 -1.375,1.125 -0.90625,0.39063 -2.04688,0.39063 -1.875,0 -2.875,-0.78125 -0.98437,-0.78125 -1.25,-2.32813 z m 9.984376,-8.57812 v -1.89061 h 1.64062 v 1.89061 z m 0,11.46875 v -9.67188 h 1.64062 v 9.67188 z m 7.72295,-1.46875 0.23437,1.45312 q -0.6875,0.14063 -1.23437,0.14063 -0.89063,0 -1.39063,-0.28125 -0.48437,-0.28125 -0.6875,-0.73438 -0.20312,-0.46875 -0.20312,-1.9375 v -5.57812 h -1.20313 v -1.26563 h 1.20313 v -2.39062 l 1.625,-0.98436 v 3.37498 h 1.65625 v 1.26563 h -1.65625 v 5.67187 q 0,0.6875 0.0781,0.89063 0.0937,0.20312 0.28125,0.32812 0.20313,0.10938 0.57813,0.10938 0.26562,0 0.71875,-0.0625 z m 1.60517,-10 v -1.89061 h 1.64063 v 1.89061 z m 0,11.46875 v -9.67188 h 1.64063 v 9.67188 z m 3.53545,-4.84375 q 0,-2.6875 1.48438,-3.96875 1.25,-1.07813 3.04687,-1.07813 2,0 3.26563,1.3125 1.26562,1.29688 1.26562,3.60938 0,1.85937 -0.5625,2.9375 -0.5625,1.0625 -1.64062,1.65625 -1.0625,0.59375 -2.32813,0.59375 -2.03125,0 -3.28125,-1.29688 -1.25,-1.3125 -1.25,-3.76562 z m 1.6875,0 q 0,1.85937 0.79688,2.79687 0.8125,0.92188 2.04687,0.92188 1.21875,0 2.03125,-0.92188 0.8125,-0.9375 0.8125,-2.84375 0,-1.79687 -0.8125,-2.71875 -0.8125,-0.92187 -2.03125,-0.92187 -1.23437,0 -2.04687,0.92187 -0.79688,0.90625 -0.79688,2.76563 z m 9.29759,4.84375 v -9.67188 h 1.46875 v 1.375 q 1.0625,-1.59375 3.07813,-1.59375 0.875,0 1.60937,0.3125 0.73438,0.3125 1.09375,0.82813 0.375,0.5 0.51563,1.20312 0.0937,0.45313 0.0937,1.59375 v 5.95313 h -1.64063 v -5.89063 q 0,-1 -0.20312,-1.48437 -0.1875,-0.5 -0.67188,-0.79688 -0.48437,-0.29687 -1.14062,-0.29687 -1.04688,0 -1.8125,0.67187 -0.75,0.65625 -0.75,2.51563 v 5.28125 z"
       id="path5135"
       inkscape:connector-curvature="0"
       style="fill:#000000;fill-rule:nonzero" />
    <path
       d="m 153.32247,308.61117 -21.54329,-36.91339 92.09447,-53.79529 21.54333,36.91339 z"
       id="path5137"
       inkscape:connector-curvature="0"
       style="fill:#000000;fill-opacity:0;fill-rule:evenodd" />
    <path
       d="m 186.5656,253.27343 4.95151,-2.89233 q 1.42438,2.31659 3.4971,3.07824 2.07272,0.76163 4.43402,0.0338 2.36127,-0.72788 7.44995,-3.66413 5.08868,-2.93628 6.78873,-3.71219 2.74795,-1.24325 4.70572,-1.3916 1.97125,-0.15622 3.52664,0.40097 1.56888,0.54929 3.04693,1.96591 1.01462,0.96357 2.53467,3.56806 l 0.99234,1.70035 -4.7626,2.78201 -0.55133,-0.94464 q -1.84293,-3.15781 -3.58832,-3.51352 -1.73975,-0.37711 -5.71985,1.94778 -7.59592,4.43702 -9.77722,5.34928 -3.65649,1.48443 -6.51737,1.20126 -2.87435,-0.2753 -5.5671,-2.28528 0.38034,4.46454 -1.53714,7.50272 -1.92539,3.02469 -8.44196,6.83124 -5.92291,3.45974 -6.98871,4.29947 -1.90564,1.38458 -2.13235,2.85604 -0.23456,1.45801 1.44299,4.3324 l 0.5513,0.94464 -4.7626,2.78202 -0.99237,-1.70038 q -1.7327,-2.96887 -2.02671,-4.58856 -0.4595,-2.33732 0.3787,-4.52793 0.83035,-2.20407 3.01138,-3.98477 2.15967,-1.78629 7.60809,-5.0051 5.44846,-3.21878 7.24268,-4.91827 1.79422,-1.69949 2.15002,-3.87973 0.35581,-2.18024 -0.94714,-4.56775 z"
       id="path5139"
       inkscape:connector-curvature="0"
       style="fill:#000000;fill-rule:nonzero" />
    <path
       d="M 785.96075,203.87544 885.42529,377.07229 420.19696,644.31639 320.73242,471.11952 Z"
       id="path5141"
       inkscape:connector-curvature="0"
       style="fill:#000000;fill-opacity:0;fill-rule:evenodd" />
    <path
       d="m 495.10425,404.50531 -29.44135,16.91217 q -8.34948,-13.69174 -20.61901,-18.30228 -12.24817,-4.60473 -26.28339,-0.39859 -14.0274,4.2197 -44.3093,21.36246 -30.27414,17.15631 -40.35309,21.75674 -16.298,7.19983 -27.96078,8.00696 -11.66278,0.80719 -20.91214,-2.52899 -9.24939,-3.33618 -17.94013,-11.78641 -5.93679,-5.72555 -14.862,-21.26693 l -5.8049,-10.10801 28.37101,-16.29733 3.21371,5.59598 q 10.79269,18.79327 21.09201,21.03979 10.29932,2.24656 33.95535,-11.34234 45.17139,-25.94809 58.20417,-31.27225 21.71728,-8.61905 38.70147,-6.84292 16.99781,1.76831 32.80481,13.82504 -1.98401,-26.48416 9.47681,-44.36591 11.47437,-17.88949 50.31854,-40.203 35.22663,-20.23547 41.56873,-25.06787 11.3811,-8.23154 12.79449,-16.84589 1.41333,-8.61432 -8.44561,-25.78164 l -3.21369,-5.59598 28.37097,-16.29734 5.80493,10.10801 q 10.17017,17.70929 11.83844,27.32846 2.66767,13.83816 -2.37756,26.82724 -5.03174,12.98132 -18.00677,23.4259 -12.96735,10.45816 -45.38306,29.31317 -32.40796,18.86859 -43.13409,28.8682 -10.70478,10.00537 -12.91303,22.91446 -2.18695,12.91485 5.44446,27.0191 z"
       id="path5143"
       inkscape:connector-curvature="0"
       style="fill:#000000;fill-rule:nonzero" />
    <path
       d="m 439.28359,444.4367 176.8504,-100.18896 20.72443,36.53543 -176.8504,100.18899 z"
       id="path5145"
       inkscape:connector-curvature="0"
       style="fill:#000000;fill-opacity:0;fill-rule:evenodd" />
    <path
       d="m 463.85895,459.76599 0.9209,1.14844 q -0.52881,0.46118 -1.00464,0.73077 -0.7749,0.43897 -1.34869,0.4408 -0.56025,-0.006 -0.96051,-0.29987 -0.40802,-0.30762 -1.13269,-1.58514 l -2.7522,-4.85187 -1.04682,0.59302 -0.62445,-1.10083 1.04682,-0.59308 -1.17951,-2.07935 0.92816,-1.65722 1.66523,2.9356 1.44104,-0.8164 0.62445,1.10089 -1.44104,0.81634 2.79846,4.93348 q 0.33917,0.59796 0.50738,0.73614 0.18177,0.13049 0.40662,0.14679 0.23071,-0.005 0.55695,-0.18982 0.23114,-0.13092 0.59454,-0.40869 z m -0.79877,-3.42639 q -1.32599,-2.33765 -0.66662,-4.18378 0.55566,-1.55389 2.11908,-2.43957 1.74017,-0.98584 3.48895,-0.46808 1.74103,0.50421 2.88202,2.51562 0.91736,1.61731 0.9599,2.83234 0.0348,1.20141 -0.61029,2.24933 -0.63153,1.04016 -1.73273,1.664 -1.76733,1.00122 -3.49475,0.48932 -1.73523,-0.52545 -2.94556,-2.65918 z m 1.46826,-0.83185 q 0.91742,1.61731 2.07331,2.03998 1.1618,0.40137 2.23578,-0.20709 1.06042,-0.60071 1.3125,-1.8031 0.24438,-1.21595 -0.69617,-2.87397 -0.88654,-1.56299 -2.04834,-1.96429 -1.16174,-0.40137 -2.22217,0.19934 -1.07403,0.60846 -1.32611,1.81079 -0.24621,1.18109 0.6712,2.79834 z m 12.86805,-3.41101 0.9209,1.14844 q -0.52881,0.46118 -1.00464,0.73071 -0.77491,0.43903 -1.3487,0.44086 -0.56018,-0.006 -0.96051,-0.29987 -0.40802,-0.30762 -1.13269,-1.58514 l -2.7522,-4.85193 -1.04681,0.59308 -0.62445,-1.10089 1.04681,-0.59302 -1.1795,-2.07938 0.92822,-1.65719 1.66516,2.93557 1.4411,-0.81637 0.62446,1.10086 -1.44111,0.81637 2.79847,4.93341 q 0.33923,0.59803 0.50738,0.73621 0.18182,0.13043 0.40662,0.14679 0.23071,-0.005 0.557,-0.18988 0.23108,-0.13092 0.59449,-0.40863 z m 7.02777,-3.65808 q -0.42432,1.12036 -0.99658,1.82165 -0.56635,0.68 -1.40925,1.15747 -1.38665,0.78559 -2.51983,0.52967 -1.13318,-0.25592 -1.72681,-1.30243 -0.35461,-0.62518 -0.35437,-1.28974 -0.007,-0.67822 0.27155,-1.23138 0.28491,-0.5744 0.76342,-1.06097 0.34614,-0.33982 1.141,-0.93375 1.6109,-1.18198 2.26471,-1.9295 -0.15601,-0.30671 -0.19458,-0.37464 -0.49335,-0.86981 -1.10938,-1.00571 -0.8136,-0.1676 -1.90118,0.44855 -1.00605,0.56992 -1.28144,1.19284 -0.27539,0.62293 -0.005,1.63727 l -1.50818,0.603 q -0.31079,-0.99121 -0.18408,-1.78131 0.11896,-0.80368 0.77863,-1.57248 0.65966,-0.7688 1.7337,-1.37726 1.08758,-0.61615 1.90021,-0.73529 0.81854,-0.14047 1.35479,0.0765 0.54212,0.19568 0.99598,0.71078 0.27612,0.32843 0.81573,1.27979 l 1.07935,1.90271 q 1.12555,1.98425 1.52136,2.46039 0.38812,0.46252 0.92395,0.80541 l -1.48187,0.83954 q -0.48554,-0.31756 -0.8714,-0.87115 z m -1.93402,-3.12454 q -0.58991,0.76519 -2.01636,1.86062 -0.81427,0.62299 -1.08887,0.99402 -0.27453,0.37103 -0.30884,0.78552 -0.0208,0.40686 0.19513,0.78736 0.3238,0.57086 0.97467,0.70489 0.65088,0.1341 1.48017,-0.33569 0.81573,-0.4621 1.25427,-1.17749 0.4444,-0.73663 0.38885,-1.53125 -0.0464,-0.62018 -0.57836,-1.55792 z m 6.01446,2.1777 -6.59137,-11.62009 1.42743,-0.80868 6.59143,11.62008 z m 13.60858,-7.7095 -0.60131,-1.06006 q -0.0793,1.69705 -1.6427,2.58273 -1.00605,0.56995 -2.16498,0.49024 -1.159,-0.0797 -2.18396,-0.80997 -1.02503,-0.73026 -1.75739,-2.02139 -0.71698,-1.26395 -0.87372,-2.52201 -0.16449,-1.27163 0.35645,-2.28509 0.53454,-1.02112 1.58136,-1.61417 0.76129,-0.4313 1.53088,-0.43631 0.77552,-0.0263 1.43555,0.28223 l -2.36676,-4.17236 1.42749,-0.80869 6.59137,11.62009 z m -6.88208,-1.65024 q 0.91736,1.61731 2.05194,2.03406 1.13465,0.41678 2.05909,-0.10697 0.93805,-0.5314 1.15887,-1.66217 0.21314,-1.14438 -0.6734,-2.7073 -0.97906,-1.72602 -2.1001,-2.15049 -1.12872,-0.43808 -2.10754,0.11646 -0.93805,0.53143 -1.13757,1.66809 -0.19953,1.13666 0.74871,2.80832 z m 4.79956,-10.35129 -0.9328,-1.64447 1.42749,-0.80868 0.9328,1.64447 z m 5.65857,9.97562 -4.77197,-8.41269 1.42743,-0.80869 4.77203,8.41269 z m 1.60913,-4.23386 1.29053,-1.01846 q 0.58673,0.78103 1.39264,0.93503 0.79822,0.14044 1.77704,-0.4141 0.97888,-0.55453 1.23114,-1.21823 0.24451,-0.67727 -0.0638,-1.22091 -0.26984,-0.47568 -0.85315,-0.52231 -0.39343,-0.0285 -1.72449,0.34842 -1.80829,0.48568 -2.58197,0.54684 -0.76007,0.0535 -1.35797,-0.27225 -0.60565,-0.33929 -0.96027,-0.96447 -0.3161,-0.55722 -0.32763,-1.17923 -0.0192,-0.63559 0.25213,-1.20234 0.1875,-0.4295 0.66596,-0.91604 0.48437,-0.50788 1.1369,-0.87756 0.99243,-0.56223 1.9021,-0.70041 0.90961,-0.13819 1.54059,0.15081 0.64459,0.28131 1.2431,1.01975 l -1.29236,0.98355 q -0.46521,-0.59842 -1.13556,-0.70352 -0.6568,-0.11279 -1.48608,0.35702 -0.99243,0.56223 -1.22888,1.12717 -0.22278,0.55722 0.0239,0.99213 0.15424,0.27182 0.44843,0.41043 0.3078,0.13092 0.77325,0.0648 0.25018,-0.034 1.45886,-0.34162 1.74622,-0.46844 2.49085,-0.5491 0.74469,-0.0807 1.36206,0.21606 0.61743,0.29673 1.03369,1.03061 0.40863,0.72031 0.3418,1.58426 -0.0532,0.85623 -0.6413,1.65628 -0.59576,0.78647 -1.5882,1.3487 -1.6314,0.92422 -2.88696,0.73761 -1.24194,-0.19434 -2.23627,-1.40888 z m 12.50196,-5.44839 0.9209,1.1484 q -0.52881,0.46118 -1.00458,0.73075 -0.77496,0.43899 -1.34876,0.44082 -0.56018,-0.006 -0.96051,-0.29986 -0.40802,-0.30762 -1.13269,-1.58515 l -2.75219,-4.85189 -1.04682,0.59304 -0.62445,-1.10086 1.04681,-0.59305 -1.1795,-2.07937 0.92822,-1.6572 1.66516,2.93561 1.44111,-0.81641 0.62445,1.10086 -1.44111,0.81638 2.79847,4.93344 q 0.33923,0.59799 0.50738,0.73618 0.18183,0.13046 0.40662,0.14676 0.23071,-0.005 0.55701,-0.18982 0.23107,-0.13092 0.59448,-0.40863 z m 7.02777,-3.65812 q -0.42432,1.12034 -0.99658,1.82166 -0.56635,0.67999 -1.40924,1.1575 -1.38666,0.78558 -2.51984,0.52966 -1.13318,-0.25595 -1.72681,-1.30242 -0.35461,-0.62519 -0.35437,-1.28977 -0.007,-0.67819 0.27155,-1.23135 0.28491,-0.57447 0.76343,-1.06101 0.34619,-0.33978 1.14099,-0.93371 1.6109,-1.18201 2.26471,-1.92951 -0.15601,-0.3067 -0.19458,-0.37466 -0.49335,-0.86981 -1.10938,-1.00571 -0.8136,-0.1676 -1.90118,0.44855 -1.00605,0.56991 -1.28144,1.19284 -0.27539,0.62292 -0.005,1.63727 l -1.50824,0.60299 q -0.31079,-0.99121 -0.18408,-1.78131 0.11896,-0.80365 0.77863,-1.57248 0.65966,-0.7688 1.7337,-1.37722 1.08759,-0.61615 1.90021,-0.73533 0.81854,-0.14044 1.3548,0.0765 0.54211,0.19571 0.99597,0.71079 0.27612,0.32843 0.81579,1.27978 l 1.07929,1.90271 q 1.12555,1.98426 1.52136,2.46039 0.38812,0.46253 0.92395,0.80545 l -1.48187,0.83951 q -0.48554,-0.31757 -0.8714,-0.87116 z m -1.93402,-3.12451 q -0.58991,0.76517 -2.01636,1.86063 -0.81427,0.62292 -1.08887,0.99399 -0.27453,0.37103 -0.30883,0.78555 -0.0208,0.4068 0.19512,0.78735 0.3238,0.5708 0.97467,0.7049 0.65088,0.13409 1.48023,-0.33573 0.81567,-0.46209 1.25421,-1.17745 0.4444,-0.73664 0.38886,-1.53125 -0.0464,-0.62018 -0.57837,-1.55796 z m 6.05523,2.15457 -4.77197,-8.41265 1.27789,-0.72397 0.67841,1.19598 q 0.13812,-1.90997 1.89191,-2.9035 0.76129,-0.43131 1.55444,-0.52149 0.79315,-0.0902 1.36023,0.18119 0.573,0.25006 1.04224,0.79232 0.30517,0.34793 0.86792,1.34006 l 2.93719,5.17807 -1.42743,0.80869 -2.90637,-5.12372 q -0.49341,-0.86981 -0.90912,-1.19098 -0.40985,-0.3425 -0.97778,-0.36197 -0.56793,-0.0195 -1.13892,0.30402 -0.91083,0.51602 -1.24548,1.47781 -0.3288,0.94049 0.58862,2.5578 l 2.60571,4.59366 z m 12.77009,-11.31097 1.50817,-0.603 q 0.58606,1.57154 0.10468,2.9397 -0.47546,1.34686 -1.86218,2.13245 -1.72657,0.97815 -3.41321,0.44314 -1.68671,-0.535 -2.88159,-2.64157 -0.77869,-1.37265 -0.90821,-2.64612 -0.12957,-1.27346 0.50965,-2.30004 0.63153,-1.04017 1.71911,-1.65632 1.37305,-0.77789 2.63636,-0.57766 1.26324,0.20022 2.2326,1.33911 l -1.27106,0.98944 q -0.68188,-0.72708 -1.42388,-0.86343 -0.7497,-0.14994 -1.45667,0.25054 -1.07397,0.60843 -1.31433,1.76819 -0.2403,1.15979 0.70795,2.83145 0.96362,1.69883 2.0556,2.10383 1.08429,0.39138 2.1311,-0.20167 0.8429,-0.4775 1.10736,-1.30972 0.27802,-0.83993 -0.18145,-1.99832 z m 8.60394,-4.37146 1.56848,-0.65512 q 0.37891,1.49139 -0.15057,2.7431 -0.53717,1.23816 -2.00544,2.06995 -1.84887,1.04745 -3.57635,0.53555 -1.72162,-0.53317 -2.88568,-2.58539 -1.21033,-2.13372 -0.78577,-3.9187 0.43823,-1.79263 2.17835,-2.77847 1.68579,-0.95502 3.40149,-0.40054 1.72155,0.53317 2.90106,2.61258 0.0771,0.13589 0.21588,0.38052 l -6.28089,3.55823 q 0.86792,1.34005 1.99891,1.68704 1.12323,0.3334 2.17004,-0.25961 0.78851,-0.44672 1.11462,-1.1702 0.31836,-0.73709 0.13587,-1.81894 z m -6.00086,0.34671 4.70386,-2.66482 q -0.69647,-1.00617 -1.44574,-1.28205 -1.15002,-0.44397 -2.23761,0.17218 -0.97888,0.55454 -1.28088,1.60556 -0.29608,1.02976 0.26037,2.16913 z"
       id="path5147"
       inkscape:connector-curvature="0"
       style="fill:#000000;fill-rule:nonzero" />
    <path
       d="m 116.22011,98.264713 c 0,38.015747 17.8504,57.023617 35.70081,76.031487 17.85037,19.00788 35.70077,38.01575 35.70077,76.0315"
       id="path5149"
       inkscape:connector-curvature="0"
       style="fill:#000000;fill-opacity:0;fill-rule:evenodd" />
    <path
       d="m 116.22011,98.264713 c 0,38.015727 17.8504,57.023597 35.70081,76.031487 8.92517,9.50394 17.85037,19.00788 24.54428,30.88779 3.34695,5.93997 6.13608,12.47391 8.08847,19.89887 0.97616,3.71249 1.74316,7.6477 2.26614,11.8428 0.26148,2.09756 0.46198,4.26004 0.59705,6.49219 0.0169,0.27902 0.0327,0.55911 0.0476,0.8403 l 0.003,0.0715"
       id="path5151"
       inkscape:connector-curvature="0"
       style="fill-rule:evenodd;stroke:#000000;stroke-width:1;stroke-linecap:butt;stroke-linejoin:round" />
    <path
       d="m 185.81675,244.37198 1.76746,4.49429 1.53491,-4.57892 z"
       id="path5153"
       inkscape:connector-curvature="0"
       style="fill:#000000;fill-rule:evenodd;stroke:#000000;stroke-width:1;stroke-linecap:butt" />
    <path
       d="M 54.750614,68.493093 H 232.54588 V 110.50884 H 54.750614 Z"
       id="path5155"
       inkscape:connector-curvature="0"
       style="fill:#000000;fill-opacity:0;fill-rule:evenodd" />
    <path
       d="m 71.297494,94.225583 q -0.92188,0.76562 -1.76563,1.09375 -0.82812,0.3125 -1.79687,0.3125 -1.59375,0 -2.45313,-0.78125 -0.85937,-0.78125 -0.85937,-1.98438 0,-0.71875 0.32812,-1.29687 0.32813,-0.59375 0.84375,-0.9375 0.53125,-0.35938 1.1875,-0.54688 0.46875,-0.125 1.45313,-0.25 1.98437,-0.23437 2.92187,-0.5625 0.0156,-0.34375 0.0156,-0.42187 0,-1 -0.46875,-1.42188 -0.625,-0.54687 -1.875,-0.54687 -1.15625,0 -1.70313,0.40625 -0.54687,0.40625 -0.8125,1.42187 l -1.60937,-0.21875 q 0.21875,-1.01562 0.71875,-1.64062 0.5,-0.64063 1.45312,-0.98438 0.95313,-0.34375 2.1875,-0.34375 1.25,0 2.01563,0.29688 0.78125,0.28125 1.14062,0.73437 0.375,0.4375 0.51563,1.10938 0.0781,0.42187 0.0781,1.51562 v 2.1875 q 0,2.28125 0.10938,2.89063 0.10937,0.59375 0.40625,1.15625 h -1.70313 q -0.26562,-0.51563 -0.32812,-1.1875 z m -0.14063,-3.67188 q -0.89062,0.375 -2.67187,0.625 -1.01563,0.14063 -1.4375,0.32813 -0.42188,0.1875 -0.65625,0.53125 -0.21875,0.34375 -0.21875,0.78125 0,0.65625 0.5,1.09375 0.5,0.4375 1.45312,0.4375 0.9375,0 1.67188,-0.40625 0.75,-0.42188 1.09375,-1.14063 0.26562,-0.5625 0.26562,-1.64062 z m 4.20385,4.85938 v -9.67188 h 1.46875 v 1.35938 q 0.45312,-0.71875 1.20312,-1.14063 0.76563,-0.4375 1.71875,-0.4375 1.07813,0 1.76563,0.45313 0.6875,0.4375 0.96875,1.23437 1.15625,-1.6875 2.98437,-1.6875 1.45313,0 2.21875,0.79688 0.78125,0.79687 0.78125,2.45312 v 6.64063 h -1.64062 v -6.09375 q 0,-0.98438 -0.15625,-1.40625 -0.15625,-0.4375 -0.57813,-0.70313 -0.42187,-0.26562 -0.98437,-0.26562 -1.01563,0 -1.6875,0.6875 -0.67188,0.67187 -0.67188,2.15625 v 5.625 h -1.64062 v -6.28125 q 0,-1.09375 -0.40625,-1.64063 -0.40625,-0.54687 -1.3125,-0.54687 -0.6875,0 -1.28125,0.35937 -0.59375,0.35938 -0.85938,1.0625 -0.25,0.70313 -0.25,2.03125 v 5.01563 z m 14.93142,-4.84375 q 0,-2.6875 1.48438,-3.96875 1.25,-1.07813 3.04687,-1.07813 2,0 3.26563,1.3125 1.26562,1.29688 1.26562,3.60938 0,1.85937 -0.5625,2.9375 -0.5625,1.0625 -1.64062,1.65625 -1.0625,0.59375 -2.32813,0.59375 -2.03125,0 -3.28125,-1.29688 -1.25,-1.3125 -1.25,-3.76562 z m 1.6875,0 q 0,1.85937 0.79688,2.79687 0.8125,0.92188 2.04687,0.92188 1.21875,0 2.03125,-0.92188 0.8125,-0.9375 0.8125,-2.84375 0,-1.79687 -0.8125,-2.71875 -0.8125,-0.92187 -2.03125,-0.92187 -1.23437,0 -2.04687,0.92187 -0.79688,0.90625 -0.79688,2.76563 z m 15.625716,4.84375 v -1.42188 q -1.125,1.64063 -3.0625,1.64063 -0.85937,0 -1.60937,-0.32813 -0.73438,-0.32812 -1.09375,-0.82812 -0.35938,-0.5 -0.5,-1.21875 -0.10938,-0.46875 -0.10938,-1.53125 v -5.98438 h 1.64063 v 5.35938 q 0,1.28125 0.10937,1.73437 0.15625,0.64063 0.65625,1.01563 0.5,0.375 1.23438,0.375 0.73437,0 1.375,-0.375 0.65625,-0.39063 0.92187,-1.03125 0.26563,-0.65625 0.26563,-1.89063 v -5.1875 h 1.64062 v 9.67188 z m 4.04759,0 v -9.67188 h 1.46875 v 1.375 q 1.0625,-1.59375 3.07813,-1.59375 0.875,0 1.60937,0.3125 0.73438,0.3125 1.09375,0.82813 0.375,0.5 0.51563,1.20312 0.0937,0.45313 0.0937,1.59375 v 5.95313 h -1.64063 v -5.89063 q 0,-1 -0.20312,-1.48437 -0.1875,-0.5 -0.67188,-0.79688 -0.48437,-0.29687 -1.14062,-0.29687 -1.04688,0 -1.8125,0.67187 -0.75,0.65625 -0.75,2.51563 v 5.28125 z m 13.95385,-1.46875 0.23437,1.45312 q -0.6875,0.14063 -1.23437,0.14063 -0.89063,0 -1.39063,-0.28125 -0.48437,-0.28125 -0.6875,-0.73438 -0.20312,-0.46875 -0.20312,-1.9375 v -5.57812 h -1.20313 v -1.26563 h 1.20313 v -2.39062 l 1.625,-0.98438 v 3.375 h 1.65625 v 1.26563 h -1.65625 v 5.67187 q 0,0.6875 0.0781,0.89063 0.0937,0.20312 0.28125,0.32812 0.20313,0.10938 0.57813,0.10938 0.26562,0 0.71875,-0.0625 z m 10.3666,0 0.23438,1.45312 q -0.6875,0.14063 -1.23438,0.14063 -0.89062,0 -1.39062,-0.28125 -0.48438,-0.28125 -0.6875,-0.73438 -0.20313,-0.46875 -0.20313,-1.9375 v -5.57812 h -1.20312 v -1.26563 h 1.20312 v -2.39062 l 1.625,-0.98438 v 3.375 h 1.65625 v 1.26563 h -1.65625 v 5.67187 q 0,0.6875 0.0781,0.89063 0.0937,0.20312 0.28125,0.32812 0.20312,0.10938 0.57812,0.10938 0.26563,0 0.71875,-0.0625 z m 0.99581,-3.375 q 0,-2.6875 1.48437,-3.96875 1.25,-1.07813 3.04688,-1.07813 2,0 3.26562,1.3125 1.26563,1.29688 1.26563,3.60938 0,1.85937 -0.5625,2.9375 -0.5625,1.0625 -1.64063,1.65625 -1.0625,0.59375 -2.32812,0.59375 -2.03125,0 -3.28125,-1.29688 -1.25,-1.3125 -1.25,-3.76562 z m 1.6875,0 q 0,1.85937 0.79687,2.79687 0.8125,0.92188 2.04688,0.92188 1.21875,0 2.03125,-0.92188 0.8125,-0.9375 0.8125,-2.84375 0,-1.79687 -0.8125,-2.71875 -0.8125,-0.92187 -2.03125,-0.92187 -1.23438,0 -2.04688,0.92187 -0.79687,0.90625 -0.79687,2.76563 z m 14.48089,4.84375 v -9.67188 h 1.46875 v 1.35938 q 0.45313,-0.71875 1.20313,-1.14063 0.76562,-0.4375 1.71875,-0.4375 1.07812,0 1.76562,0.45313 0.6875,0.4375 0.96875,1.23437 1.15625,-1.6875 2.98438,-1.6875 1.45312,0 2.21875,0.79688 0.78125,0.79687 0.78125,2.45312 v 6.64063 h -1.64063 v -6.09375 q 0,-0.98438 -0.15625,-1.40625 -0.15625,-0.4375 -0.57812,-0.70313 -0.42188,-0.26562 -0.98438,-0.26562 -1.01562,0 -1.6875,0.6875 -0.67187,0.67187 -0.67187,2.15625 v 5.625 h -1.64063 v -6.28125 q 0,-1.09375 -0.40625,-1.64063 -0.40625,-0.54687 -1.3125,-0.54687 -0.6875,0 -1.28125,0.35937 -0.59375,0.35938 -0.85937,1.0625 -0.25,0.70313 -0.25,2.03125 v 5.01563 z m 14.93143,-4.84375 q 0,-2.6875 1.48437,-3.96875 1.25,-1.07813 3.04688,-1.07813 2,0 3.26562,1.3125 1.26563,1.29688 1.26563,3.60938 0,1.85937 -0.5625,2.9375 -0.5625,1.0625 -1.64063,1.65625 -1.0625,0.59375 -2.32812,0.59375 -2.03125,0 -3.28125,-1.29688 -1.25,-1.3125 -1.25,-3.76562 z m 1.6875,0 q 0,1.85937 0.79687,2.79687 0.8125,0.92188 2.04688,0.92188 1.21875,0 2.03125,-0.92188 0.8125,-0.9375 0.8125,-2.84375 0,-1.79687 -0.8125,-2.71875 -0.8125,-0.92187 -2.03125,-0.92187 -1.23438,0 -2.04688,0.92187 -0.79687,0.90625 -0.79687,2.76563 z m 11.98508,4.84375 -3.6875,-9.67188 h 1.73437 l 2.07813,5.79688 q 0.32812,0.9375 0.625,1.9375 0.20312,-0.76563 0.60937,-1.82813 l 2.14063,-5.90625 h 1.6875 l -3.65625,9.67188 z m 13.26562,-3.10938 1.6875,0.20313 q -0.40625,1.48437 -1.48437,2.3125 -1.07813,0.8125 -2.76563,0.8125 -2.125,0 -3.375,-1.29688 -1.23437,-1.3125 -1.23437,-3.67187 0,-2.45313 1.25,-3.79688 1.26562,-1.34375 3.26562,-1.34375 1.9375,0 3.15625,1.32813 1.23438,1.3125 1.23438,3.70312 0,0.15625 0,0.4375 h -7.21875 q 0.0937,1.59375 0.90625,2.45313 0.8125,0.84375 2.01562,0.84375 0.90625,0 1.54688,-0.46875 0.64062,-0.48438 1.01562,-1.51563 z m -5.39062,-2.65625 h 5.40625 q -0.10938,-1.21875 -0.625,-1.82812 -0.78125,-0.95313 -2.03125,-0.95313 -1.125,0 -1.90625,0.76563 -0.76563,0.75 -0.84375,2.01562 z"
       id="path5157"
       inkscape:connector-curvature="0"
       style="fill:#000000;fill-rule:nonzero" />
    <path
       d="m 281.97612,256.44568 h 197.92123 v 42.01575 H 281.97612 Z"
       id="path5159"
       inkscape:connector-curvature="0"
       style="fill:#000000;fill-opacity:0;fill-rule:evenodd" />
    <path
       d="m 298.523,282.17819 q -0.92188,0.76563 -1.76563,1.09375 -0.82812,0.3125 -1.79687,0.3125 -1.59375,0 -2.45313,-0.78125 -0.85937,-0.78125 -0.85937,-1.98437 0,-0.71875 0.32812,-1.29688 0.32813,-0.59375 0.84375,-0.9375 0.53125,-0.35937 1.1875,-0.54687 0.46875,-0.125 1.45313,-0.25 1.98437,-0.23438 2.92187,-0.5625 0.0156,-0.34375 0.0156,-0.42188 0,-1 -0.46875,-1.42187 -0.625,-0.54688 -1.875,-0.54688 -1.15625,0 -1.70313,0.40625 -0.54687,0.40625 -0.8125,1.42188 l -1.60937,-0.21875 q 0.21875,-1.01563 0.71875,-1.64063 0.5,-0.64062 1.45312,-0.98437 0.95313,-0.34375 2.1875,-0.34375 1.25,0 2.01563,0.29687 0.78125,0.28125 1.14062,0.73438 0.375,0.4375 0.51563,1.10937 0.0781,0.42188 0.0781,1.51563 v 2.1875 q 0,2.28125 0.10938,2.89062 0.10937,0.59375 0.40625,1.15625 h -1.70313 q -0.26562,-0.51562 -0.32812,-1.1875 z m -0.14063,-3.67187 q -0.89062,0.375 -2.67187,0.625 -1.01563,0.14062 -1.4375,0.32812 -0.42188,0.1875 -0.65625,0.53125 -0.21875,0.34375 -0.21875,0.78125 0,0.65625 0.5,1.09375 0.5,0.4375 1.45312,0.4375 0.9375,0 1.67188,-0.40625 0.75,-0.42187 1.09375,-1.14062 0.26562,-0.5625 0.26562,-1.64063 z m 4.20383,4.85937 v -9.67187 h 1.46875 v 1.35937 q 0.45313,-0.71875 1.20313,-1.14062 0.76562,-0.4375 1.71875,-0.4375 1.07812,0 1.76562,0.45312 0.6875,0.4375 0.96875,1.23438 1.15625,-1.6875 2.98438,-1.6875 1.45312,0 2.21875,0.79687 0.78125,0.79688 0.78125,2.45313 v 6.64062 h -1.64063 v -6.09375 q 0,-0.98437 -0.15625,-1.40625 -0.15625,-0.4375 -0.57812,-0.70312 -0.42188,-0.26563 -0.98438,-0.26563 -1.01562,0 -1.6875,0.6875 -0.67187,0.67188 -0.67187,2.15625 v 5.625 h -1.64063 v -6.28125 q 0,-1.09375 -0.40625,-1.64062 -0.40625,-0.54688 -1.3125,-0.54688 -0.6875,0 -1.28125,0.35938 -0.59375,0.35937 -0.85937,1.0625 -0.25,0.70312 -0.25,2.03125 v 5.01562 z m 14.93143,-4.84375 q 0,-2.6875 1.48437,-3.96875 1.25,-1.07812 3.04688,-1.07812 2,0 3.26562,1.3125 1.26563,1.29687 1.26563,3.60937 0,1.85938 -0.5625,2.9375 -0.5625,1.0625 -1.64063,1.65625 -1.0625,0.59375 -2.32812,0.59375 -2.03125,0 -3.28125,-1.29687 -1.25,-1.3125 -1.25,-3.76563 z m 1.6875,0 q 0,1.85938 0.79687,2.79688 0.8125,0.92187 2.04688,0.92187 1.21875,0 2.03125,-0.92187 0.8125,-0.9375 0.8125,-2.84375 0,-1.79688 -0.8125,-2.71875 -0.8125,-0.92188 -2.03125,-0.92188 -1.23438,0 -2.04688,0.92188 -0.79687,0.90625 -0.79687,2.76562 z m 15.62573,4.84375 v -1.42187 q -1.125,1.64062 -3.0625,1.64062 -0.85937,0 -1.60937,-0.32812 -0.73438,-0.32813 -1.09375,-0.82813 -0.35938,-0.5 -0.5,-1.21875 -0.10938,-0.46875 -0.10938,-1.53125 v -5.98437 h 1.64063 v 5.35937 q 0,1.28125 0.10937,1.73438 0.15625,0.64062 0.65625,1.01562 0.5,0.375 1.23438,0.375 0.73437,0 1.375,-0.375 0.65625,-0.39062 0.92187,-1.03125 0.26563,-0.65625 0.26563,-1.89062 v -5.1875 h 1.64062 v 9.67187 z m 4.04758,0 v -9.67187 h 1.46875 v 1.375 q 1.0625,-1.59375 3.07812,-1.59375 0.875,0 1.60938,0.3125 0.73437,0.3125 1.09375,0.82812 0.375,0.5 0.51562,1.20313 0.0937,0.45312 0.0937,1.59375 v 5.95312 h -1.64062 v -5.89062 q 0,-1 -0.20313,-1.48438 -0.1875,-0.5 -0.67187,-0.79687 -0.48438,-0.29688 -1.14063,-0.29688 -1.04687,0 -1.8125,0.67188 -0.75,0.65625 -0.75,2.51562 v 5.28125 z m 13.95386,-1.46875 0.23437,1.45313 q -0.6875,0.14062 -1.23437,0.14062 -0.89063,0 -1.39063,-0.28125 -0.48437,-0.28125 -0.6875,-0.73437 -0.20312,-0.46875 -0.20312,-1.9375 v -5.57813 h -1.20313 v -1.26562 h 1.20313 v -2.39063 l 1.625,-0.98437 v 3.375 h 1.65625 v 1.26562 h -1.65625 v 5.67188 q 0,0.6875 0.0781,0.89062 0.0937,0.20313 0.28125,0.32813 0.20313,0.10937 0.57813,0.10937 0.26562,0 0.71875,-0.0625 z m 10.3666,0 0.23438,1.45313 q -0.6875,0.14062 -1.23438,0.14062 -0.89062,0 -1.39062,-0.28125 -0.48438,-0.28125 -0.6875,-0.73437 -0.20313,-0.46875 -0.20313,-1.9375 v -5.57813 h -1.20312 v -1.26562 h 1.20312 v -2.39063 l 1.625,-0.98437 v 3.375 h 1.65625 v 1.26562 h -1.65625 v 5.67188 q 0,0.6875 0.0781,0.89062 0.0937,0.20313 0.28125,0.32813 0.20312,0.10937 0.57812,0.10937 0.26563,0 0.71875,-0.0625 z m 0.99579,-3.375 q 0,-2.6875 1.48438,-3.96875 1.25,-1.07812 3.04687,-1.07812 2,0 3.26563,1.3125 1.26562,1.29687 1.26562,3.60937 0,1.85938 -0.5625,2.9375 -0.5625,1.0625 -1.64062,1.65625 -1.0625,0.59375 -2.32813,0.59375 -2.03125,0 -3.28125,-1.29687 -1.25,-1.3125 -1.25,-3.76563 z m 1.6875,0 q 0,1.85938 0.79688,2.79688 0.8125,0.92187 2.04687,0.92187 1.21875,0 2.03125,-0.92187 0.8125,-0.9375 0.8125,-2.84375 0,-1.79688 -0.8125,-2.71875 -0.8125,-0.92188 -2.03125,-0.92188 -1.23437,0 -2.04687,0.92188 -0.79688,0.90625 -0.79688,2.76562 z m 14.4809,4.84375 v -9.67187 h 1.46875 v 1.35937 q 0.45312,-0.71875 1.20312,-1.14062 0.76563,-0.4375 1.71875,-0.4375 1.07813,0 1.76563,0.45312 0.6875,0.4375 0.96875,1.23438 1.15625,-1.6875 2.98437,-1.6875 1.45313,0 2.21875,0.79687 0.78125,0.79688 0.78125,2.45313 v 6.64062 h -1.64062 v -6.09375 q 0,-0.98437 -0.15625,-1.40625 -0.15625,-0.4375 -0.57813,-0.70312 -0.42187,-0.26563 -0.98437,-0.26563 -1.01563,0 -1.6875,0.6875 -0.67188,0.67188 -0.67188,2.15625 v 5.625 h -1.64062 v -6.28125 q 0,-1.09375 -0.40625,-1.64062 -0.40625,-0.54688 -1.3125,-0.54688 -0.6875,0 -1.28125,0.35938 -0.59375,0.35937 -0.85938,1.0625 -0.25,0.70312 -0.25,2.03125 v 5.01562 z m 14.93142,-4.84375 q 0,-2.6875 1.48438,-3.96875 1.25,-1.07812 3.04687,-1.07812 2,0 3.26563,1.3125 1.26562,1.29687 1.26562,3.60937 0,1.85938 -0.5625,2.9375 -0.5625,1.0625 -1.64062,1.65625 -1.0625,0.59375 -2.32813,0.59375 -2.03125,0 -3.28125,-1.29687 -1.25,-1.3125 -1.25,-3.76563 z m 1.6875,0 q 0,1.85938 0.79688,2.79688 0.8125,0.92187 2.04687,0.92187 1.21875,0 2.03125,-0.92187 0.8125,-0.9375 0.8125,-2.84375 0,-1.79688 -0.8125,-2.71875 -0.8125,-0.92188 -2.03125,-0.92188 -1.23437,0 -2.04687,0.92188 -0.79688,0.90625 -0.79688,2.76562 z m 11.98511,4.84375 -3.6875,-9.67187 h 1.73438 l 2.07812,5.79687 q 0.32813,0.9375 0.625,1.9375 0.20313,-0.76562 0.60938,-1.82812 l 2.14062,-5.90625 h 1.6875 l -3.65625,9.67187 z m 13.26563,-3.10937 1.6875,0.20312 q -0.40625,1.48438 -1.48438,2.3125 -1.07812,0.8125 -2.76562,0.8125 -2.125,0 -3.375,-1.29687 -1.23438,-1.3125 -1.23438,-3.67188 0,-2.45312 1.25,-3.79687 1.26563,-1.34375 3.26563,-1.34375 1.9375,0 3.15625,1.32812 1.23437,1.3125 1.23437,3.70313 0,0.15625 0,0.4375 h -7.21875 q 0.0937,1.59375 0.90625,2.45312 0.8125,0.84375 2.01563,0.84375 0.90625,0 1.54687,-0.46875 0.64063,-0.48437 1.01563,-1.51562 z m -5.39063,-2.65625 h 5.40625 q -0.10937,-1.21875 -0.625,-1.82813 -0.78125,-0.95312 -2.03125,-0.95312 -1.125,0 -1.90625,0.76562 -0.76562,0.75 -0.84375,2.01563 z m 14.32465,-5.70313 v -1.89062 h 1.64062 v 1.89062 z m 0,11.46875 v -9.67187 h 1.64062 v 9.67187 z m 4.14483,0 v -9.67187 h 1.46875 v 1.375 q 1.0625,-1.59375 3.07813,-1.59375 0.875,0 1.60937,0.3125 0.73438,0.3125 1.09375,0.82812 0.375,0.5 0.51563,1.20313 0.0937,0.45312 0.0937,1.59375 v 5.95312 h -1.64063 v -5.89062 q 0,-1 -0.20312,-1.48438 -0.1875,-0.5 -0.67188,-0.79687 -0.48437,-0.29688 -1.14062,-0.29688 -1.04688,0 -1.8125,0.67188 -0.75,0.65625 -0.75,2.51562 v 5.28125 z m 15.4809,3.71875 -0.1875,-1.53125 q 0.54688,0.14063 0.9375,0.14063 0.54688,0 0.875,-0.1875 0.32813,-0.17188 0.54688,-0.5 0.15625,-0.25 0.5,-1.21875 0.0469,-0.14063 0.14062,-0.40625 l -3.67187,-9.6875 h 1.76562 l 2.01563,5.59375 q 0.39062,1.07812 0.70312,2.25 0.28125,-1.125 0.67188,-2.20313 l 2.07812,-5.64062 h 1.64063 l -3.6875,9.82812 q -0.59375,1.60938 -0.92188,2.20313 -0.4375,0.8125 -1,1.1875 -0.5625,0.375 -1.34375,0.375 -0.48437,0 -1.0625,-0.20313 z"
       id="path5161"
       inkscape:connector-curvature="0"
       style="fill:#000000;fill-rule:nonzero" />
    <path
       d="m 120.42495,320.81313 h 197.92126 v 42.01575 H 120.42495 Z"
       id="path5163"
       inkscape:connector-curvature="0"
       style="fill:#000000;fill-opacity:0;fill-rule:evenodd" />
    <path
       d="m 136.97182,346.54563 q -0.92188,0.76562 -1.76563,1.09375 -0.82812,0.3125 -1.79687,0.3125 -1.59375,0 -2.45313,-0.78125 -0.85937,-0.78125 -0.85937,-1.98438 0,-0.71875 0.32812,-1.29687 0.32813,-0.59375 0.84375,-0.9375 0.53125,-0.35938 1.1875,-0.54688 0.46875,-0.125 1.45313,-0.25 1.98437,-0.23437 2.92187,-0.5625 0.0156,-0.34375 0.0156,-0.42187 0,-1 -0.46875,-1.42188 -0.625,-0.54687 -1.875,-0.54687 -1.15625,0 -1.70313,0.40625 -0.54687,0.40625 -0.8125,1.42187 l -1.60937,-0.21875 q 0.21875,-1.01562 0.71875,-1.64062 0.5,-0.64063 1.45312,-0.98438 0.95313,-0.34375 2.1875,-0.34375 1.25,0 2.01563,0.29688 0.78125,0.28125 1.14062,0.73437 0.375,0.4375 0.51563,1.10938 0.0781,0.42187 0.0781,1.51562 v 2.1875 q 0,2.28125 0.10938,2.89063 0.10937,0.59375 0.40625,1.15625 h -1.70313 q -0.26562,-0.51563 -0.32812,-1.1875 z m -0.14063,-3.67188 q -0.89062,0.375 -2.67187,0.625 -1.01563,0.14063 -1.4375,0.32813 -0.42188,0.1875 -0.65625,0.53125 -0.21875,0.34375 -0.21875,0.78125 0,0.65625 0.5,1.09375 0.5,0.4375 1.45312,0.4375 0.9375,0 1.67188,-0.40625 0.75,-0.42188 1.09375,-1.14063 0.26562,-0.5625 0.26562,-1.64062 z m 4.20385,4.85938 v -9.67188 h 1.46875 v 1.35938 q 0.45312,-0.71875 1.20312,-1.14063 0.76563,-0.4375 1.71875,-0.4375 1.07813,0 1.76563,0.45313 0.6875,0.4375 0.96873,1.23437 1.15625,-1.6875 2.98438,-1.6875 1.45312,0 2.21875,0.79688 0.78125,0.79687 0.78125,2.45312 v 6.64063 h -1.64063 v -6.09375 q 0,-0.98438 -0.15625,-1.40625 -0.15625,-0.4375 -0.57812,-0.70313 -0.42188,-0.26562 -0.98438,-0.26562 -1.01562,0 -1.6875,0.6875 -0.67187,0.67187 -0.67187,2.15625 v 5.625 h -1.64061 v -6.28125 q 0,-1.09375 -0.40625,-1.64063 -0.40625,-0.54687 -1.3125,-0.54687 -0.6875,0 -1.28125,0.35937 -0.59375,0.35938 -0.85938,1.0625 -0.25,0.70313 -0.25,2.03125 v 5.01563 z m 14.93141,-4.84375 q 0,-2.6875 1.48437,-3.96875 1.25,-1.07813 3.04688,-1.07813 2,0 3.26562,1.3125 1.26563,1.29688 1.26563,3.60938 0,1.85937 -0.5625,2.9375 -0.5625,1.0625 -1.64063,1.65625 -1.0625,0.59375 -2.32812,0.59375 -2.03125,0 -3.28125,-1.29688 -1.25,-1.3125 -1.25,-3.76562 z m 1.6875,0 q 0,1.85937 0.79687,2.79687 0.8125,0.92188 2.04688,0.92188 1.21875,0 2.03125,-0.92188 0.8125,-0.9375 0.8125,-2.84375 0,-1.79687 -0.8125,-2.71875 -0.8125,-0.92187 -2.03125,-0.92187 -1.23438,0 -2.04688,0.92187 -0.79687,0.90625 -0.79687,2.76563 z m 15.62573,4.84375 v -1.42188 q -1.125,1.64063 -3.0625,1.64063 -0.85937,0 -1.60937,-0.32813 -0.73438,-0.32812 -1.09375,-0.82812 -0.35938,-0.5 -0.5,-1.21875 -0.10938,-0.46875 -0.10938,-1.53125 v -5.98438 h 1.64063 v 5.35938 q 0,1.28125 0.10937,1.73437 0.15625,0.64063 0.65625,1.01563 0.5,0.375 1.23438,0.375 0.73437,0 1.375,-0.375 0.65625,-0.39063 0.92187,-1.03125 0.26563,-0.65625 0.26563,-1.89063 v -5.1875 h 1.64062 v 9.67188 z m 4.04758,0 v -9.67188 h 1.46875 v 1.375 q 1.0625,-1.59375 3.07812,-1.59375 0.875,0 1.60938,0.3125 0.73437,0.3125 1.09375,0.82813 0.375,0.5 0.51562,1.20312 0.0937,0.45313 0.0937,1.59375 v 5.95313 h -1.64062 v -5.89063 q 0,-1 -0.20313,-1.48437 -0.1875,-0.5 -0.67187,-0.79688 -0.48438,-0.29687 -1.14063,-0.29687 -1.04687,0 -1.8125,0.67187 -0.75,0.65625 -0.75,2.51563 v 5.28125 z m 13.95385,-1.46875 0.23438,1.45312 q -0.6875,0.14063 -1.23438,0.14063 -0.89062,0 -1.39062,-0.28125 -0.48438,-0.28125 -0.6875,-0.73438 -0.20313,-0.46875 -0.20313,-1.9375 v -5.57812 h -1.20312 v -1.26563 h 1.20312 v -2.39062 l 1.625,-0.98438 v 3.375 h 1.65625 v 1.26563 h -1.65625 v 5.67187 q 0,0.6875 0.0781,0.89063 0.0937,0.20312 0.28125,0.32812 0.20312,0.10938 0.57812,0.10938 0.26563,0 0.71875,-0.0625 z m 10.36661,0 0.23438,1.45312 q -0.6875,0.14063 -1.23438,0.14063 -0.89062,0 -1.39062,-0.28125 -0.48438,-0.28125 -0.6875,-0.73438 -0.20313,-0.46875 -0.20313,-1.9375 v -5.57812 h -1.20312 v -1.26563 h 1.20312 v -2.39062 l 1.625,-0.98438 v 3.375 h 1.65625 v 1.26563 h -1.65625 v 5.67187 q 0,0.6875 0.0781,0.89063 0.0937,0.20312 0.28125,0.32812 0.20312,0.10938 0.57812,0.10938 0.26563,0 0.71875,-0.0625 z m 0.99579,-3.375 q 0,-2.6875 1.48438,-3.96875 1.25,-1.07813 3.04687,-1.07813 2,0 3.26563,1.3125 1.26562,1.29688 1.26562,3.60938 0,1.85937 -0.5625,2.9375 -0.5625,1.0625 -1.64062,1.65625 -1.0625,0.59375 -2.32813,0.59375 -2.03125,0 -3.28125,-1.29688 -1.25,-1.3125 -1.25,-3.76562 z m 1.6875,0 q 0,1.85937 0.79688,2.79687 0.8125,0.92188 2.04687,0.92188 1.21875,0 2.03125,-0.92188 0.8125,-0.9375 0.8125,-2.84375 0,-1.79687 -0.8125,-2.71875 -0.8125,-0.92187 -2.03125,-0.92187 -1.23437,0 -2.04687,0.92187 -0.79688,0.90625 -0.79688,2.76563 z m 14.4809,4.84375 v -9.67188 h 1.46875 v 1.35938 q 0.45312,-0.71875 1.20312,-1.14063 0.76563,-0.4375 1.71875,-0.4375 1.07813,0 1.76563,0.45313 0.6875,0.4375 0.96875,1.23437 1.15625,-1.6875 2.98437,-1.6875 1.45313,0 2.21875,0.79688 0.78125,0.79687 0.78125,2.45312 v 6.64063 h -1.64062 v -6.09375 q 0,-0.98438 -0.15625,-1.40625 -0.15625,-0.4375 -0.57813,-0.70313 -0.42187,-0.26562 -0.98437,-0.26562 -1.01563,0 -1.6875,0.6875 -0.67188,0.67187 -0.67188,2.15625 v 5.625 h -1.64062 v -6.28125 q 0,-1.09375 -0.40625,-1.64063 -0.40625,-0.54687 -1.3125,-0.54687 -0.6875,0 -1.28125,0.35937 -0.59375,0.35938 -0.85938,1.0625 -0.25,0.70313 -0.25,2.03125 v 5.01563 z m 14.93142,-4.84375 q 0,-2.6875 1.48438,-3.96875 1.25,-1.07813 3.04687,-1.07813 2,0 3.26563,1.3125 1.26562,1.29688 1.26562,3.60938 0,1.85937 -0.5625,2.9375 -0.5625,1.0625 -1.64062,1.65625 -1.0625,0.59375 -2.32813,0.59375 -2.03125,0 -3.28125,-1.29688 -1.25,-1.3125 -1.25,-3.76562 z m 1.6875,0 q 0,1.85937 0.79688,2.79687 0.8125,0.92188 2.04687,0.92188 1.21875,0 2.03125,-0.92188 0.8125,-0.9375 0.8125,-2.84375 0,-1.79687 -0.8125,-2.71875 -0.8125,-0.92187 -2.03125,-0.92187 -1.23437,0 -2.04687,0.92187 -0.79688,0.90625 -0.79688,2.76563 z m 11.98511,4.84375 -3.6875,-9.67188 h 1.73438 l 2.07812,5.79688 q 0.32813,0.9375 0.625,1.9375 0.20313,-0.76563 0.60938,-1.82813 l 2.14062,-5.90625 h 1.6875 l -3.65625,9.67188 z m 13.26563,-3.10938 1.6875,0.20313 q -0.40625,1.48437 -1.48438,2.3125 -1.07812,0.8125 -2.76562,0.8125 -2.125,0 -3.375,-1.29688 -1.23438,-1.3125 -1.23438,-3.67187 0,-2.45313 1.25,-3.79688 1.26563,-1.34375 3.26563,-1.34375 1.9375,0 3.15625,1.32813 1.23437,1.3125 1.23437,3.70312 0,0.15625 0,0.4375 h -7.21875 q 0.0937,1.59375 0.90625,2.45313 0.8125,0.84375 2.01563,0.84375 0.90625,0 1.54687,-0.46875 0.64063,-0.48438 1.01563,-1.51563 z m -5.39063,-2.65625 h 5.40625 q -0.10937,-1.21875 -0.625,-1.82812 -0.78125,-0.95313 -2.03125,-0.95313 -1.125,0 -1.90625,0.76563 -0.76562,0.75 -0.84375,2.01562 z m 14.32465,-5.70312 v -1.89063 h 1.64062 v 1.89063 z m 0,11.46875 v -9.67188 h 1.64062 v 9.67188 z m 4.1448,0 v -9.67188 h 1.46875 v 1.375 q 1.0625,-1.59375 3.07813,-1.59375 0.875,0 1.60937,0.3125 0.73438,0.3125 1.09375,0.82813 0.375,0.5 0.51563,1.20312 0.0937,0.45313 0.0937,1.59375 v 5.95313 h -1.64063 v -5.89063 q 0,-1 -0.20312,-1.48437 -0.1875,-0.5 -0.67188,-0.79688 -0.48437,-0.29687 -1.14062,-0.29687 -1.04688,0 -1.8125,0.67187 -0.75,0.65625 -0.75,2.51563 v 5.28125 z m 14.46527,0 3.53125,-5.03125 -3.26562,-4.64063 h 2.04687 l 1.48438,2.26563 q 0.42187,0.64062 0.67187,1.07812 0.40625,-0.59375 0.73438,-1.0625 l 1.64062,-2.28125 h 1.95313 l -3.34375,4.54688 3.59375,5.125 h -2.01563 l -1.98437,-3 -0.51563,-0.8125 -2.54687,3.8125 z"
       id="path5165"
       inkscape:connector-curvature="0"
       style="fill:#000000;fill-rule:nonzero" />
  </g>
</svg>
